<svg width="18" height="24" viewBox="0 0 18 24" fill="none" xmlns="http://www.w3.org/2000/svg">
<path d="M8.624 23.32C6 23.32 3.94133 22.872 2.448 21.976C0.954667 21.08 0.208 19.8533 0.208 18.296C0.208 17.5493 0.517334 16.9627 1.136 16.536C1.776 16.1093 2.672 15.8853 3.824 15.864C3.952 17.1227 4.432 18.0933 5.264 18.776C6.11733 19.4587 7.25867 19.8 8.688 19.8C11.312 19.8 12.624 18.8293 12.624 16.888C12.624 16.12 12.2613 15.4907 11.536 15C10.832 14.5093 9.59467 14.008 7.824 13.496C5.30667 12.792 3.46133 11.896 2.288 10.808C1.11467 9.69867 0.528 8.28 0.528 6.552C0.528 4.61067 1.27467 3.08533 2.768 1.976C4.28267 0.845332 6.34133 0.279999 8.944 0.279999C11.0347 0.279999 12.8267 0.781332 14.32 1.784C15.8133 2.76533 16.8373 4.14133 17.392 5.912C17.0293 6.27467 16.528 6.59467 15.888 6.872C15.248 7.14933 14.6827 7.288 14.192 7.288C13.808 7.288 13.5093 7.21333 13.296 7.064C13.0827 6.89333 12.8587 6.584 12.624 6.136C12.1973 5.304 11.7067 4.70667 11.152 4.344C10.5973 3.98133 9.86133 3.8 8.944 3.8C6.66133 3.8 5.52 4.55733 5.52 6.072C5.52 6.66933 5.63733 7.16 5.872 7.544C6.10667 7.90667 6.512 8.248 7.088 8.568C7.664 8.86667 8.53867 9.208 9.712 9.592C11.8453 10.296 13.4773 10.9467 14.608 11.544C15.7387 12.12 16.528 12.7493 16.976 13.432C17.4453 14.1147 17.68 14.9573 17.68 15.96C17.68 17.4107 17.296 18.6907 16.528 19.8C15.7813 20.9093 14.7253 21.7733 13.36 22.392C11.9947 23.0107 10.416 23.32 8.624 23.32Z" fill="#DB2777"/>
</svg>


