<svg width="8" height="10" viewBox="0 0 8 10" fill="none" xmlns="http://www.w3.org/2000/svg">
<path d="M3.984 9.12C3 9.12 2.228 8.952 1.668 8.616C1.108 8.28 0.828 7.82 0.828 7.236C0.828 6.956 0.944 6.736 1.176 6.576C1.416 6.416 1.752 6.332 2.184 6.324C2.232 6.796 2.412 7.16 2.724 7.416C3.044 7.672 3.472 7.8 4.008 7.8C4.992 7.8 5.484 7.436 5.484 6.708C5.484 6.42 5.348 6.184 5.076 6C4.812 5.816 4.348 5.628 3.684 5.436C2.74 5.172 2.048 4.836 1.608 4.428C1.168 4.012 0.948 3.48 0.948 2.832C0.948 2.104 1.228 1.532 1.788 1.116C2.356 0.692 3.128 0.48 4.104 0.48C4.888 0.48 5.56 0.668 6.12 1.044C6.68 1.412 7.064 1.928 7.272 2.592C7.136 2.728 6.948 2.848 6.708 2.952C6.468 3.056 6.256 3.108 6.072 3.108C5.928 3.108 5.816 3.08 5.736 3.024C5.656 2.96 5.572 2.844 5.484 2.676C5.324 2.364 5.14 2.14 4.932 2.004C4.724 1.868 4.448 1.8 4.104 1.8C3.248 1.8 2.82 2.084 2.82 2.652C2.82 2.876 2.864 3.06 2.952 3.204C3.04 3.34 3.192 3.468 3.408 3.588C3.624 3.7 3.952 3.828 4.392 3.972C5.192 4.236 5.804 4.48 6.228 4.704C6.652 4.92 6.948 5.156 7.116 5.412C7.292 5.668 7.38 5.984 7.38 6.36C7.38 6.904 7.236 7.384 6.948 7.8C6.668 8.216 6.272 8.54 5.76 8.772C5.248 9.004 4.656 9.12 3.984 9.12Z" fill="#DB2777"/>
</svg>


