<svg width="27" height="36" viewBox="0 0 27 36" fill="none" xmlns="http://www.w3.org/2000/svg">
<path d="M20.4219 26.2109C20.4219 25.5078 20.3125 24.8828 20.0938 24.3359C19.8906 23.7891 19.5234 23.2891 18.9922 22.8359C18.4609 22.3828 17.7109 21.9453 16.7422 21.5234C15.7891 21.0859 14.5703 20.6406 13.0859 20.1875C11.4609 19.6875 9.96094 19.1328 8.58594 18.5234C7.22656 17.8984 6.03906 17.1797 5.02344 16.3672C4.00781 15.5391 3.21875 14.5938 2.65625 13.5312C2.09375 12.4531 1.8125 11.2109 1.8125 9.80469C1.8125 8.41406 2.10156 7.14844 2.67969 6.00781C3.27344 4.86719 4.10938 3.88281 5.1875 3.05469C6.28125 2.21094 7.57031 1.5625 9.05469 1.10938C10.5391 0.640625 12.1797 0.40625 13.9766 0.40625C16.5078 0.40625 18.6875 0.875 20.5156 1.8125C22.3594 2.75 23.7734 4.00781 24.7578 5.58594C25.7578 7.16406 26.2578 8.90625 26.2578 10.8125H20.4219C20.4219 9.6875 20.1797 8.69531 19.6953 7.83594C19.2266 6.96094 18.5078 6.27344 17.5391 5.77344C16.5859 5.27344 15.375 5.02344 13.9062 5.02344C12.5156 5.02344 11.3594 5.23438 10.4375 5.65625C9.51562 6.07812 8.82812 6.64844 8.375 7.36719C7.92188 8.08594 7.69531 8.89844 7.69531 9.80469C7.69531 10.4453 7.84375 11.0312 8.14062 11.5625C8.4375 12.0781 8.89062 12.5625 9.5 13.0156C10.1094 13.4531 10.875 13.8672 11.7969 14.2578C12.7188 14.6484 13.8047 15.0234 15.0547 15.3828C16.9453 15.9453 18.5938 16.5703 20 17.2578C21.4062 17.9297 22.5781 18.6953 23.5156 19.5547C24.4531 20.4141 25.1562 21.3906 25.625 22.4844C26.0938 23.5625 26.3281 24.7891 26.3281 26.1641C26.3281 27.6016 26.0391 28.8984 25.4609 30.0547C24.8828 31.1953 24.0547 32.1719 22.9766 32.9844C21.9141 33.7812 20.6328 34.3984 19.1328 34.8359C17.6484 35.2578 15.9922 35.4688 14.1641 35.4688C12.5234 35.4688 10.9062 35.25 9.3125 34.8125C7.73438 34.375 6.29688 33.7109 5 32.8203C3.70312 31.9141 2.67188 30.7891 1.90625 29.4453C1.14062 28.0859 0.757812 26.5 0.757812 24.6875H6.64062C6.64062 25.7969 6.82812 26.7422 7.20312 27.5234C7.59375 28.3047 8.13281 28.9453 8.82031 29.4453C9.50781 29.9297 10.3047 30.2891 11.2109 30.5234C12.1328 30.7578 13.1172 30.875 14.1641 30.875C15.5391 30.875 16.6875 30.6797 17.6094 30.2891C18.5469 29.8984 19.25 29.3516 19.7188 28.6484C20.1875 27.9453 20.4219 27.1328 20.4219 26.2109Z" fill="#EC4899"/>
</svg>

